<svg width="230" height="240" viewBox="0 0 230 240" fill="none" xmlns="http://www.w3.org/2000/svg">
<path d="M83.2421 90.4982L83.603 90.8442L83.2421 90.4982L72.0662 102.156C68.9198 105.438 68.6423 110.622 71.4197 114.222C78.5211 123.428 86.3353 132.49 94.6455 141.159C102.956 149.828 111.644 157.979 120.469 165.386C123.937 168.298 128.941 168.002 132.094 164.712L143.271 153.053C148.784 147.303 157.344 146.127 164.091 150.178L220.833 184.256C225.528 187.076 228.634 191.909 229.347 197.528C230.059 203.147 228.264 208.66 224.429 212.661L207.589 230.228C201.736 236.332 193.398 239.415 183.024 239.415C172.959 239.415 161 236.512 147.608 230.671C121.447 219.259 92.616 197.946 66.4395 170.642C40.2646 143.337 19.8299 113.262 8.88714 85.9672C-2.5121 57.5331 -2.21657 35.3777 9.31551 23.3481L26.1559 5.78128C29.9901 1.78184 35.2626 -0.0819881 40.6271 0.659783L40.6272 0.659801C45.9921 1.40018 50.6229 4.62944 53.3313 9.53617L86.0013 68.724C89.8994 75.7858 88.7604 84.7426 83.2421 90.4982ZM220.27 206.72L220.666 206.956L220.933 206.581C222.594 204.247 223.324 201.354 222.952 198.421C222.509 194.926 220.572 191.901 217.63 190.135L160.888 156.057C156.649 153.511 151.271 154.256 147.818 157.857L144.755 161.052L144.32 161.506L144.861 161.828L220.27 206.72ZM47.7491 12.9314C46.0602 9.87134 43.1588 7.84021 39.7864 7.37481C39.3023 7.30797 38.818 7.27477 38.3375 7.27477C36.0175 7.27477 33.795 8.05584 31.9416 9.48748L31.6024 9.74952L31.8095 10.1248L75.0836 88.5246L75.412 89.1195L75.8823 88.629L78.6954 85.6946C82.143 82.0989 82.848 76.5191 80.419 72.1192L47.7491 12.9314C47.7491 12.9314 47.7491 12.9314 47.7491 12.9314ZM27.1631 15.2149L26.8347 14.62L26.3645 15.1105L13.8627 28.1517C9.06896 33.1523 6.81652 40.7184 7.00111 50.1159C7.18578 59.5174 9.80877 70.8079 14.8335 83.3407C25.4699 109.872 45.4173 139.165 70.9872 165.837C96.5566 192.508 124.641 213.318 150.083 224.416C162.1 229.658 172.931 232.397 181.954 232.59C190.978 232.783 198.243 230.428 203.041 225.424L215.529 212.397L215.965 211.943L215.424 211.621L139.91 166.666L139.568 166.462L139.293 166.749L136.642 169.515C131.15 175.243 122.471 175.737 116.44 170.676C107.436 163.118 98.5734 154.803 90.0979 145.963C81.6233 137.123 73.6517 127.878 66.406 118.485C61.5403 112.176 62.0204 103.089 67.519 97.3528L70.4255 94.321L70.6801 94.0554L70.5023 93.7334L27.1631 15.2149Z" stroke="white"/>
</svg>
