<svg width="230" height="230" viewBox="0 0 230 230" fill="none" xmlns="http://www.w3.org/2000/svg">
<g opacity="0.244">
<mask id="path-1-inside-1" fill="white">
<path d="M222.336 111.129C220.831 111.178 219.293 112.057 218.698 113.537L215.282 122.082L206.794 90.9598C206.375 89.4275 205.054 88.3123 203.475 88.1552C201.866 87.9833 200.38 88.8364 199.669 90.2547L189.232 111.129H183.365C188.722 100.545 191.601 88.789 191.601 76.6405C191.601 34.3814 157.221 0 114.96 0C72.6992 0 38.3198 34.3814 38.3198 76.6405C38.3198 88.7933 41.201 100.552 46.5615 111.139L46.0624 111.129C44.5205 111.178 43.0197 112.057 42.4248 113.537L39.0081 122.082L30.5206 90.9598C30.1015 89.4275 28.7804 88.3123 27.2011 88.1552C25.5768 87.9833 24.1063 88.8364 23.3955 90.2547L12.9585 111.129H0V118.793H15.3281C16.78 118.793 18.1049 117.973 18.7558 116.675L25.7651 102.653L34.6228 135.13C35.0568 136.718 36.4564 137.852 38.1033 137.948C38.1741 137.951 38.2493 137.953 38.3202 137.953C39.8808 137.953 41.2953 137.005 41.8792 135.545L48.5589 118.846L51.1297 118.898C53.0965 121.852 55.2108 124.722 57.6001 127.408C57.705 127.82 57.8808 128.218 58.1241 128.583C70.7018 147.448 71.4352 151.356 73.617 162.961C74.0213 165.092 74.4663 167.459 75.0315 170.184C76.0068 174.937 78.7893 178.807 82.537 181.227C81.2427 183.087 80.4725 185.337 80.4725 187.77C80.4725 191.853 82.6266 195.422 85.8426 197.462C84.8918 199.134 84.3045 201.04 84.3045 203.098C84.3045 207.181 86.4586 210.75 89.6746 212.79C88.7238 214.463 88.1366 216.369 88.1366 218.426C88.1366 224.765 93.2935 229.922 99.6326 229.922H130.289C136.628 229.922 141.785 224.765 141.785 218.426C141.785 216.369 141.198 214.463 140.247 212.79C143.463 210.75 145.617 207.181 145.617 203.098C145.617 201.04 145.03 199.135 144.079 197.462C147.295 195.422 149.449 191.853 149.449 187.77C149.449 185.337 148.679 183.088 147.385 181.228C151.133 178.808 153.915 174.941 154.89 170.193C155.455 167.459 155.9 165.093 156.304 162.961C158.486 151.356 159.22 147.448 171.797 128.583C172.041 128.218 172.216 127.82 172.321 127.408C174.739 124.691 176.877 121.786 178.862 118.794H191.601C193.053 118.794 194.378 117.974 195.029 116.676L202.038 102.654L210.896 135.131C211.33 136.719 212.73 137.853 214.376 137.949C214.447 137.952 214.522 137.954 214.593 137.954C216.154 137.954 217.568 137.006 218.152 135.546L224.832 118.847L229.843 118.948L230 111.284L222.336 111.129ZM130.289 222.257H99.6326C97.5183 222.257 95.8006 220.538 95.8006 218.425C95.8006 216.313 97.5183 214.593 99.6326 214.593H130.289C132.403 214.593 134.121 216.313 134.121 218.425C134.121 220.538 132.403 222.257 130.289 222.257ZM134.121 206.929H130.289H99.6326H95.8006C93.6863 206.929 91.9686 205.21 91.9686 203.097C91.9686 200.985 93.6863 199.265 95.8006 199.265H134.121C136.235 199.265 137.953 200.985 137.953 203.097C137.953 205.21 136.235 206.929 134.121 206.929ZM137.953 191.601H134.121H95.8006H91.9686C89.8543 191.601 88.1366 189.882 88.1366 187.769C88.1366 185.657 89.8543 183.937 91.9686 183.937H137.953C140.067 183.937 141.785 185.657 141.785 187.769C141.785 189.882 140.067 191.601 137.953 191.601ZM165.207 123.826C164.582 124.49 164.227 125.342 164.171 126.217C151.915 144.822 150.968 149.87 148.772 161.544C148.379 163.632 147.941 165.954 147.383 168.645C146.463 173.135 142.724 176.273 138.297 176.273H137.953H131.023L141.166 118.793H145.617C151.956 118.793 157.113 113.636 157.113 107.297V91.9686H168.609C170.727 91.9686 172.441 90.2528 172.441 88.1366V68.9764C172.441 62.6373 167.284 57.4804 160.945 57.4804V45.9843C160.945 39.6452 155.788 34.4882 149.449 34.4882H145.617C145.617 28.1491 140.46 22.9921 134.121 22.9921H122.625C120.507 22.9921 118.793 24.7079 118.793 26.8242V114.961C118.793 117.077 120.507 118.793 122.625 118.793H133.387L123.244 176.273H106.678L96.5349 118.793H107.297C109.415 118.793 111.129 117.077 111.129 114.961V26.8242C111.129 24.7079 109.415 22.9921 107.297 22.9921H95.8006C89.4615 22.9921 84.3045 28.1491 84.3045 34.4882H80.4725C74.1334 34.4882 68.9764 39.6452 68.9764 45.9843V57.4804C62.6373 57.4804 57.4804 62.6373 57.4804 68.9764V95.8006C57.4804 97.9168 59.1942 99.6326 61.3124 99.6326H72.8085V107.297C72.8085 113.636 77.9654 118.793 84.3045 118.793H88.7554L98.8988 176.273H91.9686H91.6242C87.1972 176.273 83.4586 173.135 82.538 168.635C81.9804 165.954 81.5426 163.632 81.1498 161.544C78.9531 149.87 78.0061 144.822 65.7508 126.217C65.6948 125.342 65.3394 124.49 64.7143 123.826C52.6343 111.031 45.9843 94.2755 45.9843 76.6405C45.9843 38.6067 76.9288 7.66405 114.961 7.66405C152.993 7.66405 183.937 38.6067 183.937 76.6405C183.937 94.2755 177.287 111.031 165.207 123.826ZM141.785 65.1444V53.6483C141.785 51.5321 140.071 49.8163 137.953 49.8163H126.457V30.6562H134.121C136.235 30.6562 137.953 32.3758 137.953 34.4882V38.3202C137.953 40.4365 139.667 42.1523 141.785 42.1523H149.449C151.563 42.1523 153.281 43.8719 153.281 45.9843V61.3124C153.281 63.4286 154.995 65.1444 157.113 65.1444H160.945C163.059 65.1444 164.777 66.864 164.777 68.9764V84.3045H153.281H137.953C135.835 84.3045 134.121 86.0203 134.121 88.1366V95.8006H141.785V91.9686H149.449V107.297C149.449 109.409 147.731 111.129 145.617 111.129H126.457V57.4804H134.121V65.1444H141.785ZM76.6405 76.6405C74.5223 76.6405 72.8085 78.3563 72.8085 80.4725V91.9686H65.1444V68.9764C65.1444 66.864 66.8621 65.1444 68.9764 65.1444H72.8085C74.9266 65.1444 76.6405 63.4286 76.6405 61.3124V45.9843C76.6405 43.8719 78.3582 42.1523 80.4725 42.1523H84.3045V49.8163H91.9686V38.3202V34.4882C91.9686 32.3758 93.6863 30.6562 95.8006 30.6562H103.465V111.129H84.3045C82.1902 111.129 80.4725 109.409 80.4725 107.297V95.8006V84.3045H88.1366V76.6405H76.6405Z"/>
</mask>
<path d="M222.336 111.129C220.831 111.178 219.293 112.057 218.698 113.537L215.282 122.082L206.794 90.9598C206.375 89.4275 205.054 88.3123 203.475 88.1552C201.866 87.9833 200.38 88.8364 199.669 90.2547L189.232 111.129H183.365C188.722 100.545 191.601 88.789 191.601 76.6405C191.601 34.3814 157.221 0 114.96 0C72.6992 0 38.3198 34.3814 38.3198 76.6405C38.3198 88.7933 41.201 100.552 46.5615 111.139L46.0624 111.129C44.5205 111.178 43.0197 112.057 42.4248 113.537L39.0081 122.082L30.5206 90.9598C30.1015 89.4275 28.7804 88.3123 27.2011 88.1552C25.5768 87.9833 24.1063 88.8364 23.3955 90.2547L12.9585 111.129H0V118.793H15.3281C16.78 118.793 18.1049 117.973 18.7558 116.675L25.7651 102.653L34.6228 135.13C35.0568 136.718 36.4564 137.852 38.1033 137.948C38.1741 137.951 38.2493 137.953 38.3202 137.953C39.8808 137.953 41.2953 137.005 41.8792 135.545L48.5589 118.846L51.1297 118.898C53.0965 121.852 55.2108 124.722 57.6001 127.408C57.705 127.82 57.8808 128.218 58.1241 128.583C70.7018 147.448 71.4352 151.356 73.617 162.961C74.0213 165.092 74.4663 167.459 75.0315 170.184C76.0068 174.937 78.7893 178.807 82.537 181.227C81.2427 183.087 80.4725 185.337 80.4725 187.77C80.4725 191.853 82.6266 195.422 85.8426 197.462C84.8918 199.134 84.3045 201.04 84.3045 203.098C84.3045 207.181 86.4586 210.75 89.6746 212.79C88.7238 214.463 88.1366 216.369 88.1366 218.426C88.1366 224.765 93.2935 229.922 99.6326 229.922H130.289C136.628 229.922 141.785 224.765 141.785 218.426C141.785 216.369 141.198 214.463 140.247 212.79C143.463 210.75 145.617 207.181 145.617 203.098C145.617 201.04 145.03 199.135 144.079 197.462C147.295 195.422 149.449 191.853 149.449 187.77C149.449 185.337 148.679 183.088 147.385 181.228C151.133 178.808 153.915 174.941 154.89 170.193C155.455 167.459 155.9 165.093 156.304 162.961C158.486 151.356 159.22 147.448 171.797 128.583C172.041 128.218 172.216 127.82 172.321 127.408C174.739 124.691 176.877 121.786 178.862 118.794H191.601C193.053 118.794 194.378 117.974 195.029 116.676L202.038 102.654L210.896 135.131C211.33 136.719 212.73 137.853 214.376 137.949C214.447 137.952 214.522 137.954 214.593 137.954C216.154 137.954 217.568 137.006 218.152 135.546L224.832 118.847L229.843 118.948L230 111.284L222.336 111.129ZM130.289 222.257H99.6326C97.5183 222.257 95.8006 220.538 95.8006 218.425C95.8006 216.313 97.5183 214.593 99.6326 214.593H130.289C132.403 214.593 134.121 216.313 134.121 218.425C134.121 220.538 132.403 222.257 130.289 222.257ZM134.121 206.929H130.289H99.6326H95.8006C93.6863 206.929 91.9686 205.21 91.9686 203.097C91.9686 200.985 93.6863 199.265 95.8006 199.265H134.121C136.235 199.265 137.953 200.985 137.953 203.097C137.953 205.21 136.235 206.929 134.121 206.929ZM137.953 191.601H134.121H95.8006H91.9686C89.8543 191.601 88.1366 189.882 88.1366 187.769C88.1366 185.657 89.8543 183.937 91.9686 183.937H137.953C140.067 183.937 141.785 185.657 141.785 187.769C141.785 189.882 140.067 191.601 137.953 191.601ZM165.207 123.826C164.582 124.49 164.227 125.342 164.171 126.217C151.915 144.822 150.968 149.87 148.772 161.544C148.379 163.632 147.941 165.954 147.383 168.645C146.463 173.135 142.724 176.273 138.297 176.273H137.953H131.023L141.166 118.793H145.617C151.956 118.793 157.113 113.636 157.113 107.297V91.9686H168.609C170.727 91.9686 172.441 90.2528 172.441 88.1366V68.9764C172.441 62.6373 167.284 57.4804 160.945 57.4804V45.9843C160.945 39.6452 155.788 34.4882 149.449 34.4882H145.617C145.617 28.1491 140.46 22.9921 134.121 22.9921H122.625C120.507 22.9921 118.793 24.7079 118.793 26.8242V114.961C118.793 117.077 120.507 118.793 122.625 118.793H133.387L123.244 176.273H106.678L96.5349 118.793H107.297C109.415 118.793 111.129 117.077 111.129 114.961V26.8242C111.129 24.7079 109.415 22.9921 107.297 22.9921H95.8006C89.4615 22.9921 84.3045 28.1491 84.3045 34.4882H80.4725C74.1334 34.4882 68.9764 39.6452 68.9764 45.9843V57.4804C62.6373 57.4804 57.4804 62.6373 57.4804 68.9764V95.8006C57.4804 97.9168 59.1942 99.6326 61.3124 99.6326H72.8085V107.297C72.8085 113.636 77.9654 118.793 84.3045 118.793H88.7554L98.8988 176.273H91.9686H91.6242C87.1972 176.273 83.4586 173.135 82.538 168.635C81.9804 165.954 81.5426 163.632 81.1498 161.544C78.9531 149.87 78.0061 144.822 65.7508 126.217C65.6948 125.342 65.3394 124.49 64.7143 123.826C52.6343 111.031 45.9843 94.2755 45.9843 76.6405C45.9843 38.6067 76.9288 7.66405 114.961 7.66405C152.993 7.66405 183.937 38.6067 183.937 76.6405C183.937 94.2755 177.287 111.031 165.207 123.826ZM141.785 65.1444V53.6483C141.785 51.5321 140.071 49.8163 137.953 49.8163H126.457V30.6562H134.121C136.235 30.6562 137.953 32.3758 137.953 34.4882V38.3202C137.953 40.4365 139.667 42.1523 141.785 42.1523H149.449C151.563 42.1523 153.281 43.8719 153.281 45.9843V61.3124C153.281 63.4286 154.995 65.1444 157.113 65.1444H160.945C163.059 65.1444 164.777 66.864 164.777 68.9764V84.3045H153.281H137.953C135.835 84.3045 134.121 86.0203 134.121 88.1366V95.8006H141.785V91.9686H149.449V107.297C149.449 109.409 147.731 111.129 145.617 111.129H126.457V57.4804H134.121V65.1444H141.785ZM76.6405 76.6405C74.5223 76.6405 72.8085 78.3563 72.8085 80.4725V91.9686H65.1444V68.9764C65.1444 66.864 66.8621 65.1444 68.9764 65.1444H72.8085C74.9266 65.1444 76.6405 63.4286 76.6405 61.3124V45.9843C76.6405 43.8719 78.3582 42.1523 80.4725 42.1523H84.3045V49.8163H91.9686V38.3202V34.4882C91.9686 32.3758 93.6863 30.6562 95.8006 30.6562H103.465V111.129H84.3045C82.1902 111.129 80.4725 109.409 80.4725 107.297V95.8006V84.3045H88.1366V76.6405H76.6405Z" stroke="white" stroke-width="2" mask="url(#path-1-inside-1)"/>
</g>
</svg>
