<svg width="512" height="512" viewBox="0 0 512 512" fill="none" xmlns="http://www.w3.org/2000/svg">
<path d="M160 1H352C439.8 1 511 72.2003 511 160V352C511 439.8 439.8 511 352 511H160C72.2003 511 1 439.8 1 352V160C1 72.2003 72.2003 1 160 1ZM352 465C414.312 465 465 414.312 465 352V160C465 97.6877 414.312 47 352 47H160C97.6877 47 47 97.6877 47 160V352C47 414.312 97.6877 465 160 465H352Z" stroke="white" stroke-width="2"/>
<path d="M129 256C129 185.864 185.864 129 256 129C326.136 129 383 185.864 383 256C383 326.136 326.136 383 256 383C185.864 383 129 326.136 129 256ZM175 256C175 300.648 211.352 337 256 337C300.648 337 337 300.648 337 256C337 211.319 300.648 175 256 175C211.352 175 175 211.319 175 256Z" stroke="white" stroke-width="2"/>
<path d="M409.656 118.4C409.656 127.267 402.467 134.456 393.6 134.456C384.732 134.456 377.544 127.267 377.544 118.4C377.544 109.533 384.732 102.344 393.6 102.344C402.467 102.344 409.656 109.533 409.656 118.4Z" stroke="white" stroke-width="2"/>
</svg>
