<svg width="81" height="116" viewBox="0 0 81 116" fill="none" xmlns="http://www.w3.org/2000/svg">
<path d="M26.5978 40.8866C26.5978 32.9263 32.9184 26.4731 40.6495 26.4731C48.3806 26.4731 54.7013 32.9263 54.7013 40.8866C54.7013 48.8469 48.3806 55.3001 40.6495 55.3001C32.9184 55.3001 26.5978 48.8469 26.5978 40.8866ZM29.4983 40.8866C29.4983 47.1635 34.4853 52.2962 40.6495 52.2962C46.8137 52.2962 51.8008 47.1635 51.8008 40.8866C51.8008 34.6097 46.8137 29.477 40.6495 29.477C34.4853 29.477 29.4983 34.6097 29.4983 40.8866Z" stroke="white" stroke-width="1.3"/>
<path d="M40.5041 109.7L39.9692 108.925L10.9542 66.8987C5.36055 59.4121 2.98349 49.5535 3.60947 39.9633C4.23569 30.3693 7.87197 20.9753 14.3927 14.4359M40.5041 109.7L14.3927 14.4359M40.5041 109.7L41.039 108.925M40.5041 109.7L41.039 108.925M14.3927 14.4359C21.366 7.44152 30.6409 3.5869 40.5041 3.5869C50.3674 3.5869 59.6422 7.44157 66.6175 14.4358L66.1573 14.8948M14.3927 14.4359L66.1573 14.8948M41.039 108.925L70.0075 66.9644C75.6251 59.4455 78.0147 49.5709 77.3948 39.9719C76.7747 30.3695 73.1384 20.9753 66.6176 14.4359L66.1573 14.8948M41.039 108.925L66.1573 14.8948M12.3247 12.3583L12.3248 12.3583C19.8529 4.80732 29.857 0.65 40.5041 0.65C51.1491 0.65 61.1553 4.80734 68.6834 12.3583L69.1438 11.8993L68.6835 12.3583C75.6305 19.3253 79.5611 29.3942 80.243 39.7533C80.9249 50.112 78.3535 60.6923 72.3848 68.6722L72.3774 68.6821L72.3704 68.6922L40.5041 114.856L8.58918 68.6265L8.58216 68.6164L8.57477 68.6065C2.63075 60.66 0.0712221 50.0964 0.759079 39.7455C1.44696 29.3944 5.37765 19.3253 12.3247 12.3583Z" stroke="white" stroke-width="1.3"/>
</svg>
