<svg width="397" height="316" viewBox="0 0 397 316" fill="none" xmlns="http://www.w3.org/2000/svg">
<path d="M43.3974 112.745C43.3974 112.745 55.6598 96.7464 47.7293 74.5281C39.7712 52.3238 21.2392 43.8903 21.2392 43.8903C21.2392 43.8903 7.37139 62.9566 15.1219 84.6006C22.8585 106.259 43.3974 112.745 43.3974 112.745Z" fill="white" fill-opacity="0.03"/>
<path d="M43.4925 111.737C43.3807 111.905 43.2853 112.044 43.2091 112.152C43.071 112.103 42.8927 112.038 42.6777 111.956C42.1108 111.741 41.289 111.407 40.2772 110.939C38.2532 110.003 35.4716 108.53 32.4502 106.387C26.407 102.099 19.4175 95.1394 15.5927 84.4324L15.5926 84.432C11.767 73.7487 13.2727 63.6922 15.7483 56.2875C16.9857 52.5863 18.4633 49.5549 19.6307 47.4501C20.2143 46.398 20.7199 45.5783 21.0785 45.0231C21.208 44.8227 21.3182 44.6568 21.4061 44.5269C21.5197 44.5839 21.6578 44.6544 21.8188 44.7388C22.3322 45.0081 23.0777 45.419 23.9985 45.9816C25.8405 47.1071 28.3825 48.8392 31.1723 51.2602C36.752 56.1024 43.3152 63.694 47.2587 74.6968C51.1806 85.6852 50.1085 95.1267 48.0592 101.822C47.034 105.171 45.7642 107.833 44.7523 109.655C44.2465 110.566 43.8056 111.266 43.4925 111.737Z" stroke="white" stroke-opacity="0.02"/>
<path d="M77.4303 124.106C77.4303 124.106 98.8687 122.369 111.145 102.966C123.421 83.5779 114.038 61.8919 114.038 61.8919C114.038 61.8919 94.1354 65.9826 81.527 85.8894C68.9324 105.782 77.4303 124.106 77.4303 124.106Z" fill="white" fill-opacity="0.03"/>
<path d="M110.723 102.699L110.722 102.699C104.654 112.29 96.3198 117.518 89.4925 120.35C86.0789 121.766 83.0458 122.581 80.8683 123.042C79.7798 123.273 78.9059 123.414 78.3061 123.498C78.0779 123.53 77.8894 123.554 77.7439 123.571C77.6929 123.448 77.6295 123.29 77.5564 123.1C77.3529 122.572 77.0746 121.791 76.7787 120.79C76.1869 118.789 75.526 115.912 75.2541 112.419C74.7106 105.436 75.7209 95.9947 81.9494 86.1569C88.1969 76.293 96.2514 70.3471 102.747 66.8663C105.994 65.126 108.85 64.0031 110.89 63.316C111.911 62.9725 112.727 62.738 113.286 62.5899C113.461 62.5433 113.612 62.5053 113.735 62.4751C113.793 62.6218 113.864 62.809 113.948 63.0346C114.177 63.656 114.492 64.5683 114.832 65.7246C115.513 68.0378 116.296 71.3239 116.697 75.2099C117.502 82.9847 116.782 93.1296 110.723 102.699Z" stroke="white" stroke-opacity="0.02"/>
<path d="M79.6032 149.743C69.6798 171.134 80.4613 188.197 80.4613 188.197C80.4613 188.197 101.512 183.63 111.173 162.799C120.819 141.94 108.723 121.682 108.723 121.682C108.723 121.682 89.5266 128.351 79.6032 149.743Z" fill="white" fill-opacity="0.03"/>
<path d="M108.069 122.473C108.237 122.404 108.381 122.347 108.499 122.301C108.575 122.438 108.67 122.614 108.781 122.826C109.088 123.412 109.518 124.274 110.005 125.376C110.979 127.579 112.178 130.734 113.079 134.534C114.881 142.136 115.48 152.293 110.719 162.589C105.943 172.887 98.3519 179.168 91.9438 182.877C88.74 184.732 85.8355 185.942 83.7343 186.687C82.6839 187.06 81.8349 187.316 81.2506 187.479C81.0285 187.541 80.8448 187.589 80.7027 187.625C80.6364 187.51 80.5535 187.362 80.457 187.184C80.1874 186.687 79.811 185.948 79.389 184.995C78.5448 183.087 77.5194 180.319 76.8003 176.889C75.3629 170.033 75.149 160.533 80.0568 149.953C84.974 139.353 92.1885 132.4 98.1762 128.097C101.17 125.945 103.855 124.457 105.789 123.508C106.756 123.033 107.534 122.693 108.069 122.473Z" stroke="white" stroke-opacity="0.02"/>
<path d="M128.058 166.974C128.058 166.974 109.553 175.463 101.664 197.682C93.7756 219.942 106.08 235.884 106.08 235.884C106.08 235.884 126.591 229.342 134.286 207.67C141.967 185.998 128.058 166.974 128.058 166.974Z" fill="white" fill-opacity="0.03"/>
<path d="M127.481 167.824C127.641 167.739 127.779 167.668 127.893 167.611C127.981 167.741 128.091 167.906 128.221 168.106C128.581 168.66 129.088 169.478 129.674 170.529C130.847 172.63 132.332 175.657 133.578 179.355C136.073 186.752 137.606 196.806 133.815 207.503C130.01 218.217 123.038 225.194 117.007 229.497C113.991 231.648 111.214 233.129 109.193 234.07C108.183 234.541 107.363 234.877 106.797 235.094C106.582 235.176 106.404 235.242 106.266 235.291C106.189 235.183 106.094 235.045 105.982 234.877C105.667 234.408 105.225 233.71 104.717 232.801C103.7 230.984 102.424 228.328 101.391 224.983C99.3268 218.297 98.234 208.858 102.136 197.849C106.045 186.839 112.584 179.23 118.148 174.372C120.93 171.944 123.467 170.204 125.305 169.073C126.224 168.508 126.968 168.095 127.481 167.824Z" stroke="white" stroke-opacity="0.02"/>
<path d="M143.476 283.977C143.476 283.977 161.274 271.719 162.478 248.73C163.668 225.728 144.915 211.578 144.915 211.578C144.915 211.578 129.608 225.097 128.376 248.688C127.158 272.266 143.476 283.977 143.476 283.977Z" fill="white" fill-opacity="0.03"/>
<path d="M143.483 283.355C143.379 283.274 143.249 283.169 143.095 283.042C142.661 282.684 142.038 282.143 141.293 281.42C139.803 279.974 137.825 277.8 135.885 274.896C132.005 269.093 128.273 260.375 128.875 248.714L143.483 283.355ZM143.483 283.355C143.601 283.267 143.753 283.153 143.936 283.011C144.417 282.637 145.108 282.076 145.942 281.33C147.611 279.838 149.852 277.609 152.13 274.668C156.687 268.787 161.384 260.07 161.979 248.704C162.566 237.35 158.233 228.171 153.735 221.817C151.486 218.641 149.201 216.177 147.479 214.508C146.618 213.673 145.898 213.038 145.396 212.613C145.215 212.46 145.062 212.334 144.941 212.236C144.848 212.324 144.736 212.433 144.606 212.561C144.192 212.97 143.597 213.582 142.878 214.392C141.439 216.01 139.504 218.416 137.531 221.553C133.583 227.828 129.486 237.024 128.875 248.714L143.483 283.355Z" stroke="white" stroke-opacity="0.02"/>
<path d="M70.7317 69.9331C70.7317 69.9331 89.7065 63.517 95.2703 40.5842C100.848 17.6514 90.0664 0.224144 90.0664 0.224144C90.0664 0.224144 68.0882 8.29335 62.649 30.6658C57.2236 53.0242 70.7317 69.9331 70.7317 69.9331Z" fill="white" fill-opacity="0.03"/>
<path d="M94.7845 40.466L94.7844 40.4663C92.0327 51.8081 85.9692 59.0567 80.5971 63.4722C77.9096 65.6811 75.3948 67.1811 73.5547 68.1276C72.6349 68.6008 71.8843 68.9354 71.3659 69.1509C71.1821 69.2273 71.0276 69.2888 70.9051 69.3361C70.817 69.2177 70.7041 69.0632 70.5697 68.8737C70.2169 68.3761 69.7168 67.6378 69.1325 66.6811C67.9636 64.7673 66.4592 61.9822 65.1225 58.5045C62.4491 51.5484 60.4526 41.8379 63.1348 30.7839C65.8196 19.7409 72.5875 12.2189 78.7048 7.44962C81.7627 5.06559 84.6525 3.37392 86.7764 2.27894C87.8381 1.73161 88.7075 1.33382 89.3098 1.07353C89.5258 0.980143 89.7075 0.904472 89.8512 0.84596C89.9147 0.957646 89.9914 1.09487 90.0797 1.2569C90.3588 1.76952 90.7533 2.53023 91.2102 3.51579C92.1242 5.48718 93.2874 8.3564 94.278 11.9377C96.2595 19.1007 97.5484 29.1019 94.7845 40.466Z" stroke="white" stroke-opacity="0.02"/>
<path d="M43.3835 161.51C43.3835 161.51 50.4281 142.556 36.3803 123.714C22.3049 104.858 2.15358 102.322 2.15358 102.322C2.15358 102.322 -5.54156 124.68 8.16022 143.06C21.862 161.454 43.3835 161.51 43.3835 161.51Z" fill="white" fill-opacity="0.03"/>
<path d="M43.0289 161.001C42.8825 160.996 42.6926 160.987 42.4623 160.973C41.8576 160.936 40.975 160.863 39.8717 160.718C37.6645 160.429 34.577 159.853 31.065 158.708C24.0408 156.417 15.3341 151.854 8.56119 142.762L8.56108 142.761C1.7986 133.69 0.309375 123.629 0.518552 115.812C0.623103 111.905 1.15195 108.567 1.65435 106.207C1.90547 105.027 2.14978 104.093 2.3307 103.455C2.39647 103.223 2.45385 103.031 2.50012 102.88C2.62527 102.901 2.77799 102.927 2.9567 102.96C3.52528 103.064 4.35667 103.234 5.39978 103.498C7.48632 104.024 10.4181 104.922 13.7873 106.405C20.5259 109.37 29.0054 114.67 35.9797 124.013C42.9265 133.331 44.655 142.669 44.6498 149.677C44.6473 153.184 44.2107 156.106 43.7757 158.15C43.5582 159.172 43.3413 159.973 43.1795 160.516C43.1213 160.712 43.0703 160.874 43.0289 161.001Z" stroke="white" stroke-opacity="0.02"/>
<path d="M59.1059 211.522C59.1059 211.522 61.8048 191.462 43.9786 176.248C26.1248 161.02 5.91814 163.093 5.91814 163.093C5.91814 163.093 3.31619 186.628 20.6995 201.464C38.1104 216.285 59.1059 211.522 59.1059 211.522Z" fill="white" fill-opacity="0.03"/>
<path d="M6.33953 164.161C6.35294 163.919 6.36678 163.717 6.3789 163.559C6.50593 163.551 6.66149 163.542 6.84418 163.533C7.42149 163.507 8.26954 163.486 9.34438 163.507C11.4944 163.55 14.5498 163.765 18.1598 164.451C25.38 165.824 34.8086 169.084 43.6542 176.628C52.4688 184.151 56.2043 192.866 57.7393 199.7C58.5071 203.118 58.724 206.066 58.7491 208.156C58.7617 209.201 58.7264 210.031 58.6882 210.597C58.6744 210.802 58.6603 210.972 58.6479 211.105C58.5037 211.133 58.316 211.167 58.0876 211.205C57.4899 211.305 56.6132 211.431 55.5056 211.537C53.2898 211.75 50.1526 211.881 46.4762 211.553C39.1229 210.898 29.6293 208.409 21.0236 201.083C12.4455 193.762 8.78947 184.288 7.28067 176.619C6.52654 172.786 6.31058 169.411 6.28317 166.997C6.26947 165.79 6.30288 164.824 6.33953 164.161Z" stroke="white" stroke-opacity="0.02"/>
<path d="M83.0494 252.877C83.0494 252.877 79.6586 232.928 58.0956 223.906C36.5188 214.857 17.8899 223.024 17.8899 223.024C17.8899 223.024 22.4572 246.251 43.4665 255.077C64.4759 263.86 83.0494 252.877 83.0494 252.877Z" fill="white" fill-opacity="0.03"/>
<path d="M57.9022 224.368L57.9026 224.368C68.5637 228.828 74.7259 235.985 78.226 242.026C79.9769 245.047 81.0613 247.79 81.7073 249.774C82.0302 250.766 82.2433 251.567 82.3754 252.119C82.4235 252.32 82.4608 252.487 82.4887 252.619C82.3591 252.689 82.1893 252.78 81.9811 252.888C81.4415 253.166 80.6443 253.556 79.6211 253.997C77.5741 254.88 74.6253 255.967 71.026 256.783C63.8267 258.415 54.0424 258.956 43.6594 254.615C33.2933 250.26 26.9727 242.349 23.2387 235.501C21.3723 232.078 20.1562 228.929 19.4071 226.636C19.0326 225.49 18.7752 224.559 18.6117 223.916C18.5516 223.679 18.5042 223.482 18.4683 223.327C18.5875 223.28 18.7341 223.224 18.9072 223.159C19.4493 222.957 20.2508 222.677 21.2813 222.368C23.3426 221.75 26.3178 221.019 29.9629 220.568C37.2534 219.665 47.213 219.884 57.9022 224.368Z" stroke="white" stroke-opacity="0.02"/>
<path d="M93.5126 270.052C71.0362 263.692 53.4868 274.045 53.4868 274.045C53.4868 274.045 60.7529 296.543 82.6481 302.749C104.571 308.955 121.705 295.801 121.705 295.801C121.705 295.801 115.989 276.398 93.5126 270.052Z" fill="white" fill-opacity="0.03"/>
<path d="M93.3765 270.533L93.3767 270.533C104.489 273.671 111.451 280.031 115.638 285.607C117.732 288.396 119.132 290.988 120.007 292.88C120.444 293.826 120.75 294.596 120.946 295.128C121.018 295.322 121.075 295.484 121.118 295.611C120.998 295.697 120.839 295.808 120.645 295.94C120.142 296.282 119.397 296.766 118.433 297.327C116.506 298.451 113.707 299.887 110.229 301.132C103.273 303.62 93.6186 305.335 82.7843 302.268C71.9814 299.206 64.7764 292.122 60.2642 285.78C58.0089 282.61 56.4311 279.631 55.4178 277.447C54.9113 276.355 54.5463 275.462 54.3084 274.844C54.2209 274.617 54.1505 274.426 54.0968 274.277C54.2099 274.216 54.3493 274.142 54.5143 274.057C55.0292 273.791 55.7926 273.416 56.7801 272.985C58.7552 272.123 61.6247 271.037 65.1919 270.149C72.3267 268.371 82.2418 267.383 93.3765 270.533Z" stroke="white" stroke-opacity="0.02"/>
<path d="M73.3015 83.9732L63.3088 79C62.7829 80.1067 11.3805 190.624 155.817 315.599L163.041 307.039C25.5252 188.032 71.2808 88.1619 73.3015 83.9732Z" fill="white" fill-opacity="0.03"/>
<path d="M155.761 314.889C83.9279 252.598 60.8114 193.967 55.6985 150.79C50.918 110.421 61.8696 83.5087 63.5509 79.679L72.6416 84.2033C70.7494 88.3376 60.0878 113.884 65.3496 152.517C70.8564 192.948 93.7945 247.648 162.341 307.094L155.761 314.889Z" stroke="white" stroke-opacity="0.02"/>
<path d="M353.597 112.535C353.597 112.535 341.321 96.5363 349.265 74.332C357.196 52.1136 375.741 43.6802 375.741 43.6802C375.741 43.6802 389.595 62.7325 381.845 84.3904C374.136 106.048 353.597 112.535 353.597 112.535Z" fill="white" fill-opacity="0.03"/>
<path d="M349.736 74.5004L349.736 74.5C353.666 63.4905 360.225 55.8956 365.805 51.0518C368.595 48.6299 371.138 46.8975 372.98 45.7718C373.902 45.209 374.648 44.7981 375.161 44.5288C375.322 44.4443 375.461 44.3737 375.575 44.3167C375.662 44.4465 375.772 44.6122 375.902 44.8123C376.26 45.3672 376.765 46.1864 377.348 47.2379C378.514 49.3416 379.99 52.3717 381.225 56.0719C383.698 63.4749 385.2 73.5315 381.374 84.222L381.374 84.2228C377.563 94.9296 370.58 101.889 364.541 106.177C361.521 108.32 358.74 109.793 356.717 110.729C355.705 111.197 354.884 111.53 354.317 111.746C354.102 111.828 353.923 111.893 353.785 111.942C353.709 111.834 353.613 111.695 353.501 111.527C353.188 111.056 352.746 110.356 352.24 109.445C351.227 107.623 349.956 104.962 348.93 101.613C346.879 94.9199 345.807 85.4819 349.736 74.5004Z" stroke="white" stroke-opacity="0.02"/>
<path d="M319.564 123.896C319.564 123.896 298.126 122.145 285.836 102.756C273.559 83.3678 282.943 61.6818 282.943 61.6818C282.943 61.6818 302.845 65.7724 315.467 85.6652C328.062 105.572 319.564 123.896 319.564 123.896Z" fill="white" fill-opacity="0.03"/>
<path d="M283.033 62.8244C283.116 62.5988 283.188 62.4116 283.246 62.265C283.369 62.2952 283.519 62.3332 283.695 62.3797C284.254 62.5278 285.07 62.7622 286.091 63.1056C288.132 63.7925 290.988 64.915 294.236 66.6545C300.733 70.1335 308.791 76.0759 315.045 85.9326C321.274 95.7774 322.284 105.223 321.74 112.207C321.468 115.701 320.808 118.578 320.216 120.58C319.92 121.581 319.641 122.361 319.438 122.89C319.365 123.08 319.302 123.237 319.251 123.36C319.105 123.343 318.917 123.32 318.689 123.288C318.089 123.203 317.215 123.061 316.126 122.83C313.948 122.368 310.915 121.552 307.5 120.135C300.671 117.301 292.334 112.073 286.258 102.489C280.199 92.9194 279.479 82.7745 280.283 74.9998C280.685 71.1138 281.467 67.8276 282.148 65.5144C282.489 64.3581 282.804 63.4459 283.033 62.8244Z" stroke="white" stroke-opacity="0.02"/>
<path d="M317.391 149.518C327.315 170.91 316.533 187.973 316.533 187.973C316.533 187.973 295.482 183.406 285.808 162.575C276.175 141.715 288.258 121.458 288.258 121.458C288.258 121.458 307.468 128.141 317.391 149.518Z" fill="white" fill-opacity="0.03"/>
<path d="M288.2 122.602C288.311 122.39 288.406 122.214 288.482 122.077C288.6 122.123 288.744 122.18 288.912 122.25C289.447 122.47 290.227 122.81 291.194 123.285C293.129 124.236 295.816 125.725 298.811 127.878C304.803 132.183 312.021 139.136 316.938 149.729C321.845 160.308 321.632 169.809 320.194 176.665C319.475 180.095 318.45 182.863 317.606 184.771C317.184 185.724 316.807 186.462 316.537 186.96C316.441 187.138 316.358 187.286 316.292 187.401C316.15 187.365 315.966 187.317 315.744 187.255C315.16 187.092 314.31 186.836 313.26 186.463C311.159 185.718 308.254 184.508 305.049 182.653C298.639 178.943 291.044 172.662 286.262 162.365C281.507 152.069 282.107 141.912 283.907 134.31C284.807 130.509 286.005 127.355 286.978 125.151C287.464 124.05 287.893 123.187 288.2 122.602Z" stroke="white" stroke-opacity="0.02"/>
<path d="M268.937 166.764C268.937 166.764 287.427 175.239 295.33 197.499C303.219 219.746 290.901 235.688 290.901 235.688C290.901 235.688 270.404 229.132 262.709 207.46C255.014 185.788 268.937 166.764 268.937 166.764Z" fill="white" fill-opacity="0.03"/>
<path d="M290.715 235.095C290.577 235.045 290.4 234.98 290.185 234.897C289.619 234.68 288.799 234.343 287.79 233.872C285.77 232.929 282.995 231.447 279.981 229.294C273.953 224.988 266.984 218.007 263.18 207.293C259.382 196.595 260.915 186.542 263.411 179.145C264.659 175.447 266.145 172.42 267.318 170.319C267.905 169.268 268.413 168.45 268.773 167.896C268.903 167.696 269.014 167.53 269.102 167.401C269.215 167.458 269.353 167.529 269.513 167.613C270.025 167.884 270.769 168.297 271.687 168.862C273.525 169.992 276.06 171.731 278.841 174.16C284.403 179.02 290.943 186.636 294.859 197.667C298.761 208.669 297.664 218.104 295.596 224.788C294.562 228.132 293.284 230.788 292.266 232.605C291.758 233.514 291.314 234.212 291 234.681C290.888 234.848 290.792 234.987 290.715 235.095Z" stroke="white" stroke-opacity="0.02"/>
<path d="M253.492 283.753C253.492 283.753 235.707 271.509 234.503 248.506C233.313 225.503 252.08 211.34 252.08 211.34C252.08 211.34 267.36 224.859 268.605 248.464C269.837 272.07 253.492 283.753 253.492 283.753Z" fill="white" fill-opacity="0.03"/>
<path d="M259.452 221.316C263.394 227.593 267.489 236.793 268.106 248.491C268.715 260.165 264.979 268.883 261.095 274.682C259.152 277.584 257.171 279.755 255.679 281.199C254.933 281.921 254.309 282.461 253.874 282.819C253.72 282.946 253.589 283.05 253.485 283.131C253.367 283.044 253.214 282.929 253.032 282.787C252.552 282.414 251.861 281.853 251.027 281.108C249.359 279.617 247.121 277.389 244.844 274.45C240.291 268.57 235.598 259.853 235.002 248.48C234.415 237.126 238.752 227.944 243.253 221.586C245.503 218.408 247.791 215.942 249.514 214.272C250.376 213.437 251.096 212.801 251.599 212.376C251.78 212.223 251.933 212.097 252.054 211.998C252.146 212.086 252.258 212.195 252.387 212.323C252.801 212.732 253.395 213.344 254.113 214.153C255.55 215.772 257.481 218.178 259.452 221.316Z" stroke="white" stroke-opacity="0.02"/>
<path d="M326.235 69.723C326.235 69.723 307.288 63.3068 301.724 40.374C296.147 17.4412 306.942 0 306.942 0C306.942 0 328.92 8.0692 334.346 30.4556C339.771 52.8001 326.235 69.723 326.235 69.723Z" fill="white" fill-opacity="0.03"/>
<path d="M302.21 40.2562L302.21 40.2559C299.446 28.8918 300.738 18.8872 302.723 11.7207C303.716 8.13766 304.881 5.26668 305.796 3.29396C306.253 2.30775 306.648 1.54648 306.928 1.03347C307.016 0.87111 307.093 0.733635 307.157 0.621784C307.301 0.680303 307.482 0.75599 307.699 0.849401C308.301 1.10972 309.17 1.50756 310.232 2.05499C312.355 3.15017 315.245 4.84226 318.302 7.22713C324.417 11.9981 331.182 19.5234 333.86 30.5734L333.86 30.5736C336.542 41.6204 334.539 51.3308 331.858 58.2887C330.518 61.7673 329.01 64.5538 327.839 66.4687C327.253 67.426 326.752 68.1648 326.398 68.6627C326.264 68.8526 326.15 69.0074 326.062 69.1259C325.94 69.0786 325.786 69.0172 325.602 68.9409C325.085 68.7254 324.335 68.3908 323.417 67.9176C321.579 66.9711 319.068 65.4712 316.384 63.2622C311.019 58.8468 304.962 51.5982 302.21 40.2562Z" stroke="white" stroke-opacity="0.02"/>
<path d="M353.611 161.3C353.611 161.3 346.566 142.346 360.6 123.504C374.676 104.648 394.841 102.112 394.841 102.112C394.841 102.112 402.55 124.47 388.834 142.85C375.119 161.244 353.611 161.3 353.611 161.3Z" fill="white" fill-opacity="0.03"/>
<path d="M394.037 102.749C394.216 102.717 394.369 102.69 394.495 102.67C394.541 102.821 394.598 103.013 394.664 103.245C394.846 103.883 395.09 104.817 395.342 105.997C395.846 108.357 396.376 111.695 396.481 115.602C396.692 123.419 395.203 133.48 388.434 142.551L388.433 142.551C381.654 151.644 372.947 156.207 365.924 158.497C362.413 159.643 359.327 160.219 357.121 160.508C356.018 160.653 355.136 160.726 354.532 160.763C354.302 160.777 354.112 160.785 353.966 160.791C353.924 160.664 353.873 160.502 353.815 160.306C353.653 159.763 353.436 158.961 353.219 157.94C352.783 155.896 352.346 152.973 352.343 149.467C352.336 142.458 354.061 133.12 361.001 123.803C367.975 114.46 376.458 109.16 383.2 106.194C386.571 104.712 389.505 103.814 391.592 103.287C392.636 103.024 393.468 102.854 394.037 102.749Z" stroke="white" stroke-opacity="0.02"/>
<path d="M337.889 211.312C337.889 211.312 335.176 191.251 353.016 176.01C370.87 160.796 391.076 162.869 391.076 162.869C391.076 162.869 393.678 186.418 376.281 201.24C358.884 216.061 337.889 211.312 337.889 211.312Z" fill="white" fill-opacity="0.03"/>
<path d="M390.15 163.309C390.333 163.318 390.489 163.326 390.616 163.335C390.628 163.493 390.642 163.695 390.655 163.937C390.692 164.6 390.725 165.567 390.711 166.775C390.684 169.19 390.467 172.566 389.712 176.4C388.202 184.071 384.542 193.545 375.957 200.859C367.358 208.185 357.868 210.677 350.516 211.336C346.841 211.666 343.704 211.536 341.488 211.325C340.381 211.219 339.504 211.093 338.907 210.994C338.678 210.956 338.491 210.922 338.346 210.895C338.334 210.761 338.32 210.591 338.306 210.387C338.267 209.82 338.231 208.99 338.243 207.945C338.268 205.855 338.483 202.906 339.25 199.486C340.783 192.649 344.519 183.927 353.34 176.39C362.186 168.853 371.614 165.597 378.835 164.225C382.445 163.54 385.5 163.326 387.65 163.283C388.725 163.261 389.573 163.283 390.15 163.309Z" stroke="white" stroke-opacity="0.02"/>
<path d="M313.931 252.667C313.931 252.667 317.336 232.704 338.899 223.668C360.49 214.618 379.105 222.786 379.105 222.786C379.105 222.786 374.537 246.013 353.528 254.824C332.505 263.65 313.931 252.667 313.931 252.667Z" fill="white" fill-opacity="0.03"/>
<path d="M339.092 224.129L339.092 224.129C349.788 219.646 359.748 219.427 367.037 220.33C370.681 220.781 373.655 221.512 375.715 222.13C376.745 222.439 377.546 222.719 378.088 222.921C378.261 222.985 378.407 223.042 378.526 223.089C378.49 223.244 378.443 223.441 378.383 223.678C378.219 224.32 377.962 225.251 377.587 226.397C376.838 228.69 375.622 231.839 373.756 235.261C370.022 242.107 363.701 250.015 353.335 254.363L353.334 254.363C342.945 258.725 333.157 258.194 325.956 256.568C322.356 255.754 319.407 254.668 317.36 253.786C316.336 253.345 315.539 252.956 315 252.677C314.792 252.57 314.622 252.479 314.492 252.409C314.52 252.277 314.558 252.109 314.606 251.908C314.738 251.356 314.952 250.554 315.276 249.562C315.923 247.576 317.009 244.831 318.762 241.807C322.265 235.761 328.431 228.597 339.092 224.129Z" stroke="white" stroke-opacity="0.02"/>
<path d="M303.468 269.842C325.945 263.496 343.508 273.835 343.508 273.835C343.508 273.835 336.255 296.319 314.346 302.567C292.437 308.745 275.303 295.591 275.303 295.591C275.303 295.591 281.005 276.202 303.468 269.842Z" fill="white" fill-opacity="0.03"/>
<path d="M276.363 295.73C276.169 295.598 276.011 295.487 275.89 295.401C275.933 295.274 275.99 295.112 276.061 294.918C276.257 294.387 276.563 293.617 276.999 292.672C277.873 290.78 279.27 288.19 281.362 285.401C285.544 279.828 292.499 273.468 303.604 270.323C314.739 267.179 324.657 268.168 331.796 269.944C335.365 270.832 338.236 271.916 340.213 272.777C341.201 273.207 341.965 273.581 342.48 273.847C342.645 273.932 342.785 274.006 342.898 274.067C342.844 274.216 342.774 274.406 342.687 274.634C342.449 275.251 342.085 276.144 341.579 277.235C340.566 279.419 338.99 282.397 336.735 285.568C332.225 291.912 325.02 299.003 314.209 302.086C303.383 305.139 293.732 303.417 286.778 300.925C283.301 299.679 280.502 298.242 278.575 297.118C277.611 296.556 276.866 296.072 276.363 295.73Z" stroke="white" stroke-opacity="0.02"/>
<path d="M323.91 83.3958L333.93 78.4226C334.456 79.5293 385.859 190.047 241.409 315.007L234.198 306.448C371.686 187.469 325.931 87.5705 323.91 83.3958Z" fill="white" fill-opacity="0.03"/>
<path d="M331.865 151.938C337.123 113.308 326.465 87.7607 324.57 83.6262L333.688 79.101C335.369 82.9289 346.321 109.842 341.539 150.211C336.424 193.386 313.304 252.014 241.465 314.297L234.898 306.503C303.431 247.07 326.362 192.371 331.865 151.938Z" stroke="white" stroke-opacity="0.02"/>
</svg>
