<svg width="120" height="94" viewBox="0 0 120 94" fill="none" xmlns="http://www.w3.org/2000/svg">
<path d="M111.487 5.89771L112.363 5.06333L111.184 4.79362C111.088 4.77171 111.018 4.75127 110.934 4.72681C110.869 4.7077 110.795 4.68613 110.694 4.6595C110.501 4.60887 110.266 4.55825 110 4.55825H10.0001C9.73417 4.55825 9.49841 4.60906 9.30591 4.65978C9.20539 4.68627 9.1315 4.70782 9.06597 4.72692C8.98144 4.75157 8.91084 4.77216 8.81499 4.79405L7.63537 5.06341L8.51122 5.89824C17.1662 14.1479 45.8775 41.5081 55.925 50.9373L55.925 50.9374C56.7618 51.7226 58.1823 52.7333 60.0002 52.7333C61.818 52.7333 63.2385 51.7227 64.0729 50.9398L64.073 50.9398C74.1213 41.5091 102.831 14.1503 111.487 5.89771ZM5.72829 8.50684L4.94831 7.76322L4.65441 8.80002C4.64235 8.84255 4.62973 8.88632 4.61677 8.93126C4.49765 9.34435 4.34992 9.85664 4.34992 10.4167V83.3333C4.34992 83.8337 4.48111 84.3021 4.58398 84.6694C4.60253 84.7357 4.62016 84.7986 4.63594 84.8579L4.92497 85.9437L5.72214 85.1518C12.4033 78.5154 32.427 58.7405 45.3582 47.1699L45.8843 46.6992L45.3718 46.2136C32.3845 33.9115 12.3546 14.8243 5.72829 8.50684ZM8.41473 87.8427L7.5957 88.6561L8.7158 88.9347C8.7955 88.9546 8.87662 88.9778 8.96917 89.0046L8.98844 89.0102C9.07275 89.0346 9.16754 89.0621 9.26395 89.087C9.4737 89.1412 9.72228 89.1917 10.0001 89.1917H110C110.278 89.1917 110.526 89.1412 110.736 89.087C110.84 89.0602 110.942 89.0303 111.031 89.0046C111.123 88.9778 111.205 88.9545 111.284 88.9347L112.404 88.6561L111.585 87.8428C104.684 80.989 84.5109 61.0768 71.7764 49.7305L71.3311 49.3338L70.8976 49.7433C69.2388 51.3106 67.7237 52.7397 66.5302 53.8601L66.5297 53.8605C64.5756 55.698 62.3181 56.6417 60 56.6417C57.682 56.6417 55.4244 55.6983 53.4677 53.8581L53.4673 53.8576C52.2742 52.7378 50.7603 51.3099 49.1024 49.7434L48.6689 49.3337L48.2236 49.7305C35.4898 61.078 15.3139 80.9917 8.41473 87.8427ZM114.278 85.1518L115.076 85.9442L115.364 84.8576C115.38 84.7981 115.398 84.7349 115.416 84.6684C115.519 84.3013 115.65 83.833 115.65 83.3333V10.4165C115.65 9.85625 115.502 9.34368 115.383 8.93045C115.37 8.88562 115.358 8.84196 115.346 8.79953L115.052 7.76271L114.272 8.50636C107.643 14.8263 87.6162 33.9117 74.6285 46.2139L74.1159 46.6994L74.6421 47.1702C87.573 58.7392 107.594 78.512 114.278 85.1518ZM10.0001 0.65H110C115.132 0.65 119.35 5.00535 119.35 10.4167V83.3333C119.35 88.7447 115.131 93.1 110 93.1H10.0001C4.86849 93.1 0.65 88.7446 0.65 83.3335V10.4167C0.65 5.00535 4.8685 0.65 10.0001 0.65Z" stroke="white" stroke-width="1.3"/>
</svg>
