<svg width="120" height="145" viewBox="0 0 120 145" fill="none" xmlns="http://www.w3.org/2000/svg">
<path d="M78.921 103.692L79.3302 103.953L79.6029 103.551C83.701 97.5244 90.0847 93.6541 97.2159 93.6541C109.436 93.6541 119.5 104.99 119.5 119.077C119.5 133.165 109.462 144.5 97.2423 144.5C85.0229 144.5 74.9846 133.136 74.9846 119.077C74.9846 116.119 75.4521 113.248 76.2835 110.585L76.3975 110.22L76.0747 110.014L41.132 87.7645L40.7209 87.5027L40.4487 87.907C36.3505 93.9933 29.9408 97.8928 22.7841 97.8928C10.5637 97.8928 0.5 86.5574 0.5 72.4699C0.5 58.382 10.5641 47.0469 22.7577 47.0469C29.9159 47.0469 36.3245 50.9177 40.395 57.0015L40.6667 57.4076L41.079 57.1452L75.9953 34.9256L76.3193 34.7194L76.2037 34.3532C75.3736 31.7236 74.9317 28.884 74.9317 25.923C74.9317 11.8347 84.9697 0.5 97.1894 0.5C109.409 0.5 119.447 11.8347 119.447 25.923C119.447 40.0109 109.383 51.3459 97.1894 51.3459C90.0323 51.3459 83.6229 47.446 79.5515 41.3905L79.2796 40.986L78.8683 41.2475L43.9255 63.4672L43.6025 63.6726L43.7165 64.0381C44.5473 66.6996 44.989 69.5096 44.989 72.4699C44.989 75.4006 44.5471 78.2417 43.7421 80.8743L43.6309 81.2382L43.9519 81.4424L78.921 103.692ZM113.337 25.9531C113.337 15.9249 106.168 7.65926 97.2159 7.65926C88.2907 7.65926 81.0947 15.9243 81.0947 25.9531C81.0947 35.9813 88.2638 44.2469 97.2159 44.2469C106.168 44.2469 113.337 35.9813 113.337 25.9531ZM6.663 72.4699C6.663 82.4981 13.8321 90.7637 22.7841 90.7637C31.7093 90.7637 38.9053 82.4986 38.9053 72.4699C38.9053 62.4417 31.7362 54.1761 22.7841 54.1761C13.8321 54.1761 6.663 62.4417 6.663 72.4699ZM81.0947 119.047C81.0947 129.075 88.2638 137.341 97.2159 137.341C106.168 137.341 113.337 129.075 113.337 119.047C113.337 109.019 106.168 100.753 97.2159 100.753C88.2638 100.753 81.0947 109.019 81.0947 119.047Z" stroke="white"/>
</svg>
