<svg width="102" height="109" viewBox="0 0 102 109" fill="none" xmlns="http://www.w3.org/2000/svg">
<path d="M70.4336 77.8222L70.4336 77.8221C77.4422 70.8118 88.8449 70.8118 95.8535 77.8221L95.8537 77.8223C99.2499 81.2167 101.119 85.7307 101.119 90.5331C101.119 95.3355 99.2499 99.8476 95.8536 103.244C92.3504 106.747 87.7476 108.5 83.1426 108.5C78.5376 108.5 73.9349 106.747 70.4317 103.244L70.4316 103.244C67.0354 99.8495 65.1665 95.3355 65.1665 90.5331C65.1665 88.3036 65.5868 86.1412 66.3604 84.1155L66.5091 83.726L66.1527 83.5097L34.1816 64.1042L33.769 63.8538L33.5042 64.2573C30.2886 69.1562 24.757 72.3995 18.4761 72.3995C8.56454 72.3995 0.5 64.3349 0.5 54.4233C0.5 44.5117 8.56454 36.4472 18.4761 36.4472C24.7571 36.4472 30.2904 39.6905 33.506 44.5894L33.77 44.9915L34.182 44.7434L66.1587 25.4857L66.5173 25.2697L66.3677 24.8786C65.6046 22.8846 65.1683 20.7316 65.1683 18.4761C65.1683 8.56454 73.2329 0.5 83.1445 0.5C93.0561 0.5 101.121 8.56454 101.121 18.4761C101.121 28.3877 93.0561 36.4523 83.1445 36.4523C76.7759 36.4523 71.1814 33.114 67.989 28.0997L67.7271 27.6883L67.3093 27.9399L35.3751 47.1718L35.0114 47.3908L35.1686 47.7852C35.989 49.8433 36.4541 52.079 36.4541 54.4233C36.4541 56.7676 35.989 59.0032 35.1669 61.0611L35.0098 61.4543L35.3718 61.674L67.2986 81.0536L67.7158 81.3069L67.9791 80.8958C68.6824 79.7975 69.4936 78.7621 70.4336 77.8222ZM98.4254 18.4761C98.4254 10.0502 91.5705 3.19523 83.1445 3.19523C74.7166 3.19523 67.8636 10.0502 67.8636 18.4761C67.8636 26.9021 74.7185 33.7571 83.1445 33.7571C91.5705 33.7571 98.4254 26.9021 98.4254 18.4761ZM3.19708 54.4233C3.19708 62.8493 10.052 69.7042 18.478 69.7042C26.904 69.7042 33.7589 62.8493 33.7589 54.4233C33.7589 45.9974 26.904 39.1424 18.478 39.1424C10.052 39.1424 3.19708 45.9974 3.19708 54.4233ZM72.339 101.339C78.2969 107.297 87.9901 107.297 93.948 101.339L93.9481 101.339C96.8356 98.453 98.4254 94.6121 98.4254 90.5331C98.4254 86.454 96.8355 82.6131 93.95 79.7276C90.9698 76.7474 87.0569 75.2596 83.1445 75.2596C79.2321 75.2596 75.3192 76.7474 72.339 79.7276C69.4534 82.6131 67.8636 86.454 67.8636 90.5331C67.8636 94.6122 69.4534 98.4531 72.339 101.339Z" stroke="white"/>
</svg>
